<svg width="19" height="20" viewBox="0 0 19 20" fill="none" xmlns="http://www.w3.org/2000/svg">
<path d="M0.0888672 1.77417V4.29134C0.0888672 4.29334 0.0898628 4.29433 0.0918542 4.29433C4.22906 4.29533 7.97893 5.9751 10.6893 8.68445C13.4026 11.3978 15.0794 15.1437 15.0794 19.2848C15.0794 19.2868 15.0804 19.2878 15.0824 19.2878H17.5995C17.5995 14.4506 15.641 10.0725 12.4706 6.90311C9.30124 3.73275 4.92307 1.77417 0.0888672 1.77417Z" fill="black"/>
<path d="M4.77546 19.3754C7.41287 19.3754 9.55091 17.2373 9.55091 14.5999C9.55091 11.9625 7.41287 9.82446 4.77546 9.82446C2.13804 9.82446 0 11.9625 0 14.5999C0 17.2373 2.13804 19.3754 4.77546 19.3754Z" fill="black"/>
<path d="M15.81 6.35144C17.3503 6.35144 18.599 5.10277 18.599 3.56244C18.599 2.02212 17.3503 0.773438 15.81 0.773438C14.2697 0.773438 13.021 2.02212 13.021 3.56244C13.021 5.10277 14.2697 6.35144 15.81 6.35144Z" fill="#7600FF"/>
</svg>
